<svg xmlns="http://www.w3.org/2000/svg" width="300.362" height="52.234" viewBox="0 0 300.362 52.234">
  <g id="Full-Vector" transform="translate(-751.432 -220.47)">
    <path id="Title" d="M17-59.854a6.262,6.262,0,0,1-.037.74,1.647,1.647,0,0,1-.117.476.758.758,0,0,1-.183.264.35.35,0,0,1-.234.088H10.235v5.1h5.814a.393.393,0,0,1,.234.073.611.611,0,0,1,.183.249,1.633,1.633,0,0,1,.117.469,6.071,6.071,0,0,1,.037.732,6.071,6.071,0,0,1-.037.732,1.843,1.843,0,0,1-.117.483.671.671,0,0,1-.183.271.369.369,0,0,1-.234.081H10.235v7.059a.451.451,0,0,1-.088.278.66.66,0,0,1-.315.2,2.827,2.827,0,0,1-.593.124A8.14,8.14,0,0,1,8.3-42.4a8.179,8.179,0,0,1-.93-.044,2.694,2.694,0,0,1-.593-.124.714.714,0,0,1-.315-.2.428.428,0,0,1-.1-.278V-60.22a1.171,1.171,0,0,1,.33-.93,1.2,1.2,0,0,1,.813-.286h8.919a.369.369,0,0,1,.234.081.674.674,0,0,1,.183.264,1.763,1.763,0,0,1,.117.491A6.456,6.456,0,0,1,17-59.854ZM30.225-42.94a.39.39,0,0,1-.146.322,1,1,0,0,1-.461.168,6.252,6.252,0,0,1-.93.051,6.345,6.345,0,0,1-.959-.051.825.825,0,0,1-.425-.168.421.421,0,0,1-.124-.322v-1.04a5.939,5.939,0,0,1-1.838,1.347,5.34,5.34,0,0,1-2.292.483,6.412,6.412,0,0,1-1.911-.271,4.3,4.3,0,0,1-1.508-.805,3.624,3.624,0,0,1-.989-1.325,4.509,4.509,0,0,1-.351-1.845,4.177,4.177,0,0,1,.447-1.984,3.633,3.633,0,0,1,1.333-1.391,6.635,6.635,0,0,1,2.2-.813,15.749,15.749,0,0,1,3.061-.264h1.274v-.791a4.155,4.155,0,0,0-.124-1.076,1.8,1.8,0,0,0-.41-.769,1.692,1.692,0,0,0-.762-.454,4.062,4.062,0,0,0-1.179-.146,6.061,6.061,0,0,0-1.648.205,9.448,9.448,0,0,0-1.281.454q-.556.249-.93.454a1.36,1.36,0,0,1-.608.205.436.436,0,0,1-.286-.1.748.748,0,0,1-.205-.293,2.024,2.024,0,0,1-.124-.469,3.96,3.96,0,0,1-.044-.615,2.789,2.789,0,0,1,.073-.718,1.105,1.105,0,0,1,.278-.476,2.738,2.738,0,0,1,.718-.469,8.43,8.43,0,0,1,1.2-.476,11.1,11.1,0,0,1,1.5-.359,9.923,9.923,0,0,1,1.677-.139,10.014,10.014,0,0,1,2.629.3,4.433,4.433,0,0,1,1.794.923,3.585,3.585,0,0,1,1.025,1.6,7.493,7.493,0,0,1,.322,2.329Zm-3.617-5.594H25.2a7.555,7.555,0,0,0-1.523.132,2.921,2.921,0,0,0-1.025.4,1.629,1.629,0,0,0-.578.637,1.922,1.922,0,0,0-.183.857,1.647,1.647,0,0,0,.52,1.289,2.077,2.077,0,0,0,1.443.469,2.7,2.7,0,0,0,1.428-.4,5.922,5.922,0,0,0,1.325-1.157Zm17.178,3.471q0,.381-.022.637a3.723,3.723,0,0,1-.059.432,1.329,1.329,0,0,1-.088.286,1.06,1.06,0,0,1-.227.278,3.222,3.222,0,0,1-.6.41,5.926,5.926,0,0,1-.967.432,7.827,7.827,0,0,1-1.179.308,7.232,7.232,0,0,1-1.311.117,7.115,7.115,0,0,1-2.673-.469,5.015,5.015,0,0,1-1.955-1.384,6.085,6.085,0,0,1-1.194-2.233,10.33,10.33,0,0,1-.4-3.017,10.462,10.462,0,0,1,.491-3.39,6.482,6.482,0,0,1,1.369-2.365,5.462,5.462,0,0,1,2.08-1.391,7.4,7.4,0,0,1,2.636-.454,6.414,6.414,0,0,1,1.15.1,6.652,6.652,0,0,1,1.054.278,5.654,5.654,0,0,1,.879.4,2.686,2.686,0,0,1,.549.381,1.533,1.533,0,0,1,.227.271.923.923,0,0,1,.1.286,3.724,3.724,0,0,1,.059.432q.022.256.022.622a3.381,3.381,0,0,1-.146,1.194q-.146.344-.381.344a.9.9,0,0,1-.527-.205q-.278-.205-.659-.454a4.915,4.915,0,0,0-.908-.454,3.474,3.474,0,0,0-1.259-.205,2.5,2.5,0,0,0-2.2,1.106,5.717,5.717,0,0,0-.762,3.244,8.135,8.135,0,0,0,.19,1.86,3.961,3.961,0,0,0,.564,1.347,2.377,2.377,0,0,0,.937.813,2.994,2.994,0,0,0,1.311.271,3.423,3.423,0,0,0,1.311-.227,5.337,5.337,0,0,0,.959-.505q.41-.278.688-.505a.815.815,0,0,1,.469-.227.332.332,0,0,1,.22.073.518.518,0,0,1,.139.271,3.326,3.326,0,0,1,.081.505Q43.786-45.546,43.786-45.063ZM58.518-49.9a1.421,1.421,0,0,1-.3,1,1.076,1.076,0,0,1-.827.322H49.438a5.428,5.428,0,0,0,.2,1.516,2.892,2.892,0,0,0,.63,1.157,2.743,2.743,0,0,0,1.113.725,4.767,4.767,0,0,0,1.633.249,9.187,9.187,0,0,0,1.7-.139,11.265,11.265,0,0,0,1.267-.308q.535-.168.886-.308a1.644,1.644,0,0,1,.571-.139.43.43,0,0,1,.22.051.381.381,0,0,1,.146.183,1.225,1.225,0,0,1,.081.373q.022.242.022.608,0,.322-.015.549a3.451,3.451,0,0,1-.044.388.93.93,0,0,1-.088.271,1.016,1.016,0,0,1-.154.212,1.78,1.78,0,0,1-.52.278A8.229,8.229,0,0,1,56-42.566a14.824,14.824,0,0,1-1.508.293,12.536,12.536,0,0,1-1.816.124,9.615,9.615,0,0,1-3.053-.439,5.437,5.437,0,0,1-2.189-1.333,5.544,5.544,0,0,1-1.311-2.255,10.59,10.59,0,0,1-.432-3.193,10.147,10.147,0,0,1,.454-3.141,6.586,6.586,0,0,1,1.318-2.372,5.667,5.667,0,0,1,2.1-1.486,7.23,7.23,0,0,1,2.79-.513,7.305,7.305,0,0,1,2.8.483,5.059,5.059,0,0,1,1.911,1.34,5.406,5.406,0,0,1,1.1,2.028,8.833,8.833,0,0,1,.351,2.548ZM54.945-50.95a3.788,3.788,0,0,0-.622-2.438,2.408,2.408,0,0,0-2.058-.886,2.672,2.672,0,0,0-1.223.264,2.5,2.5,0,0,0-.864.71,3.239,3.239,0,0,0-.527,1.054,5.252,5.252,0,0,0-.212,1.3Zm10.3,7.967a.4.4,0,0,1-.088.256.646.646,0,0,1-.3.183,2.613,2.613,0,0,1-.564.11,8.912,8.912,0,0,1-.893.037,8.913,8.913,0,0,1-.893-.037,2.613,2.613,0,0,1-.564-.11.646.646,0,0,1-.3-.183.4.4,0,0,1-.088-.256V-62.241a.428.428,0,0,1,.088-.264.656.656,0,0,1,.3-.2,2.513,2.513,0,0,1,.564-.124,7.437,7.437,0,0,1,.893-.044,7.437,7.437,0,0,1,.893.044,2.513,2.513,0,0,1,.564.124.656.656,0,0,1,.3.2.428.428,0,0,1,.088.264ZM80.983-49.9a1.421,1.421,0,0,1-.3,1,1.076,1.076,0,0,1-.827.322H71.9a5.428,5.428,0,0,0,.2,1.516,2.892,2.892,0,0,0,.63,1.157,2.743,2.743,0,0,0,1.113.725,4.767,4.767,0,0,0,1.633.249,9.187,9.187,0,0,0,1.7-.139,11.266,11.266,0,0,0,1.267-.308q.535-.168.886-.308a1.644,1.644,0,0,1,.571-.139.43.43,0,0,1,.22.051.381.381,0,0,1,.146.183,1.225,1.225,0,0,1,.081.373q.022.242.022.608,0,.322-.015.549a3.45,3.45,0,0,1-.044.388.93.93,0,0,1-.088.271,1.016,1.016,0,0,1-.154.212,1.78,1.78,0,0,1-.52.278,8.229,8.229,0,0,1-1.084.344,14.824,14.824,0,0,1-1.508.293,12.536,12.536,0,0,1-1.816.124,9.615,9.615,0,0,1-3.053-.439A5.437,5.437,0,0,1,69.9-43.921a5.544,5.544,0,0,1-1.311-2.255,10.59,10.59,0,0,1-.432-3.193,10.147,10.147,0,0,1,.454-3.141,6.586,6.586,0,0,1,1.318-2.372,5.667,5.667,0,0,1,2.1-1.486,7.23,7.23,0,0,1,2.79-.513,7.305,7.305,0,0,1,2.8.483,5.059,5.059,0,0,1,1.911,1.34,5.406,5.406,0,0,1,1.1,2.028,8.834,8.834,0,0,1,.351,2.548ZM77.41-50.95a3.788,3.788,0,0,0-.622-2.438,2.408,2.408,0,0,0-2.058-.886,2.672,2.672,0,0,0-1.223.264,2.5,2.5,0,0,0-.864.71,3.239,3.239,0,0,0-.527,1.054,5.253,5.253,0,0,0-.212,1.3Zm15.8,4.276a4.4,4.4,0,0,1-.417,1.962,3.906,3.906,0,0,1-1.179,1.421,5.313,5.313,0,0,1-1.8.857,8.492,8.492,0,0,1-2.255.286,8.593,8.593,0,0,1-1.4-.11,8.463,8.463,0,0,1-1.194-.278,6.243,6.243,0,0,1-.879-.344,2.165,2.165,0,0,1-.513-.33,1.021,1.021,0,0,1-.249-.483,4.042,4.042,0,0,1-.088-.974,6.272,6.272,0,0,1,.029-.681,1.739,1.739,0,0,1,.088-.41.385.385,0,0,1,.146-.205.43.43,0,0,1,.22-.051,1.093,1.093,0,0,1,.476.183q.315.183.783.4a8.315,8.315,0,0,0,1.091.41,4.829,4.829,0,0,0,1.413.19,3.479,3.479,0,0,0,.886-.1,2.233,2.233,0,0,0,.674-.293,1.242,1.242,0,0,0,.432-.483,1.487,1.487,0,0,0,.146-.674,1.118,1.118,0,0,0-.271-.754,2.406,2.406,0,0,0-.718-.549,8.244,8.244,0,0,0-1.01-.439q-.564-.205-1.157-.454a10.6,10.6,0,0,1-1.157-.571,4.413,4.413,0,0,1-1.01-.791,3.6,3.6,0,0,1-.718-1.128,4.154,4.154,0,0,1-.271-1.582,4.014,4.014,0,0,1,.366-1.721,3.743,3.743,0,0,1,1.054-1.34,5,5,0,0,1,1.677-.864,7.454,7.454,0,0,1,2.219-.308,7.939,7.939,0,0,1,1.194.088,8.721,8.721,0,0,1,1.047.22,5,5,0,0,1,.791.286,2.608,2.608,0,0,1,.461.264.731.731,0,0,1,.2.22.928.928,0,0,1,.088.264q.029.154.051.381t.022.564q0,.4-.022.644a1.685,1.685,0,0,1-.073.4.351.351,0,0,1-.139.2.4.4,0,0,1-.205.051,1,1,0,0,1-.41-.154,7.409,7.409,0,0,0-.7-.33,8.215,8.215,0,0,0-.967-.33,4.652,4.652,0,0,0-1.252-.154,3.226,3.226,0,0,0-.864.1,1.643,1.643,0,0,0-.6.293,1.232,1.232,0,0,0-.351.447,1.305,1.305,0,0,0-.117.549,1.093,1.093,0,0,0,.278.762,2.552,2.552,0,0,0,.732.542,8.308,8.308,0,0,0,1.032.439q.578.205,1.172.447a10.719,10.719,0,0,1,1.172.564,4.43,4.43,0,0,1,1.032.791,3.652,3.652,0,0,1,.732,1.12A3.917,3.917,0,0,1,93.211-46.674Zm11.965,0a4.4,4.4,0,0,1-.417,1.962,3.906,3.906,0,0,1-1.179,1.421,5.313,5.313,0,0,1-1.8.857,8.492,8.492,0,0,1-2.255.286,8.593,8.593,0,0,1-1.4-.11,8.463,8.463,0,0,1-1.194-.278,6.243,6.243,0,0,1-.879-.344,2.165,2.165,0,0,1-.513-.33,1.021,1.021,0,0,1-.249-.483,4.042,4.042,0,0,1-.088-.974,6.274,6.274,0,0,1,.029-.681,1.738,1.738,0,0,1,.088-.41.385.385,0,0,1,.146-.205.43.43,0,0,1,.22-.051,1.093,1.093,0,0,1,.476.183q.315.183.783.4a8.315,8.315,0,0,0,1.091.41,4.829,4.829,0,0,0,1.413.19,3.479,3.479,0,0,0,.886-.1,2.233,2.233,0,0,0,.674-.293,1.243,1.243,0,0,0,.432-.483,1.487,1.487,0,0,0,.146-.674,1.118,1.118,0,0,0-.271-.754,2.406,2.406,0,0,0-.718-.549,8.245,8.245,0,0,0-1.01-.439q-.564-.205-1.157-.454a10.6,10.6,0,0,1-1.157-.571,4.413,4.413,0,0,1-1.01-.791,3.6,3.6,0,0,1-.718-1.128,4.153,4.153,0,0,1-.271-1.582,4.014,4.014,0,0,1,.366-1.721A3.743,3.743,0,0,1,96.7-55.71a5,5,0,0,1,1.677-.864,7.454,7.454,0,0,1,2.219-.308,7.939,7.939,0,0,1,1.194.088,8.722,8.722,0,0,1,1.047.22,5,5,0,0,1,.791.286,2.609,2.609,0,0,1,.461.264.731.731,0,0,1,.2.22.928.928,0,0,1,.088.264q.029.154.051.381t.022.564q0,.4-.022.644a1.686,1.686,0,0,1-.073.4.351.351,0,0,1-.139.2.4.4,0,0,1-.205.051,1,1,0,0,1-.41-.154,7.41,7.41,0,0,0-.7-.33,8.214,8.214,0,0,0-.967-.33,4.652,4.652,0,0,0-1.252-.154,3.226,3.226,0,0,0-.864.1,1.643,1.643,0,0,0-.6.293,1.232,1.232,0,0,0-.351.447,1.305,1.305,0,0,0-.117.549,1.093,1.093,0,0,0,.278.762,2.552,2.552,0,0,0,.732.542,8.309,8.309,0,0,0,1.032.439q.578.205,1.172.447a10.718,10.718,0,0,1,1.172.564,4.429,4.429,0,0,1,1.032.791,3.652,3.652,0,0,1,.732,1.12A3.917,3.917,0,0,1,105.176-46.674Zm22.875,1.318q0,.366-.022.622a3.016,3.016,0,0,1-.066.439,1.247,1.247,0,0,1-.117.315,1.54,1.54,0,0,1-.234.3,2.977,2.977,0,0,1-.622.432,7.324,7.324,0,0,1-1.128.505,9.794,9.794,0,0,1-1.523.4,10.03,10.03,0,0,1-1.853.161,9.759,9.759,0,0,1-3.515-.6,6.942,6.942,0,0,1-2.665-1.794,8.019,8.019,0,0,1-1.684-2.98,13.365,13.365,0,0,1-.586-4.159A13.173,13.173,0,0,1,114.681-56a8.935,8.935,0,0,1,1.8-3.149,7.539,7.539,0,0,1,2.775-1.933,9.369,9.369,0,0,1,3.566-.659,8.584,8.584,0,0,1,1.523.132,9.3,9.3,0,0,1,1.355.344,6.786,6.786,0,0,1,1.12.491,3.356,3.356,0,0,1,.7.476,1.644,1.644,0,0,1,.271.33,1.227,1.227,0,0,1,.117.337,3.739,3.739,0,0,1,.066.483q.022.278.022.688,0,.439-.029.747a1.926,1.926,0,0,1-.1.5.683.683,0,0,1-.176.278.35.35,0,0,1-.234.088,1.015,1.015,0,0,1-.557-.256,9.062,9.062,0,0,0-.871-.571,7.091,7.091,0,0,0-1.274-.571,5.407,5.407,0,0,0-1.765-.256,4.3,4.3,0,0,0-2.014.461,4.316,4.316,0,0,0-1.508,1.318,6.186,6.186,0,0,0-.945,2.072,10.7,10.7,0,0,0-.322,2.739,10.751,10.751,0,0,0,.344,2.892,5.582,5.582,0,0,0,.981,2.014,3.97,3.97,0,0,0,1.538,1.179,5.077,5.077,0,0,0,2.028.388,5.781,5.781,0,0,0,1.772-.242,7.455,7.455,0,0,0,1.281-.535q.535-.293.879-.527a1.09,1.09,0,0,1,.535-.234.416.416,0,0,1,.234.059.44.44,0,0,1,.146.234,2.293,2.293,0,0,1,.088.491Q128.051-45.883,128.051-45.356Zm15.758-4.291a9.982,9.982,0,0,1-.439,3.046,6.429,6.429,0,0,1-1.333,2.372,5.926,5.926,0,0,1-2.241,1.538,8.4,8.4,0,0,1-3.149.542,8.624,8.624,0,0,1-3.031-.483,5.454,5.454,0,0,1-2.138-1.406,5.777,5.777,0,0,1-1.259-2.27,10.566,10.566,0,0,1-.41-3.075,9.9,9.9,0,0,1,.447-3.053,6.433,6.433,0,0,1,1.34-2.372,5.977,5.977,0,0,1,2.233-1.53,8.347,8.347,0,0,1,3.141-.542,8.792,8.792,0,0,1,3.046.476,5.326,5.326,0,0,1,2.131,1.4,5.827,5.827,0,0,1,1.252,2.27A10.622,10.622,0,0,1,143.809-49.647Zm-3.793.146a9.589,9.589,0,0,0-.154-1.779,4.186,4.186,0,0,0-.52-1.413,2.6,2.6,0,0,0-.974-.937,3.128,3.128,0,0,0-1.53-.337,3.236,3.236,0,0,0-1.435.3,2.576,2.576,0,0,0-1.01.879A4.2,4.2,0,0,0,133.8-51.4a7.869,7.869,0,0,0-.2,1.853,9.165,9.165,0,0,0,.161,1.779,4.4,4.4,0,0,0,.52,1.413,2.478,2.478,0,0,0,.974.93,3.2,3.2,0,0,0,1.523.33,3.271,3.271,0,0,0,1.45-.3,2.6,2.6,0,0,0,1.01-.871,4.017,4.017,0,0,0,.586-1.384A8.159,8.159,0,0,0,140.016-49.5ZM167.5-42.984a.4.4,0,0,1-.088.256.644.644,0,0,1-.293.183,2.475,2.475,0,0,1-.557.11,8.912,8.912,0,0,1-.893.037q-.556,0-.908-.037a2.612,2.612,0,0,1-.564-.11.594.594,0,0,1-.293-.183.422.422,0,0,1-.081-.256v-7.747a5.371,5.371,0,0,0-.124-1.2,2.818,2.818,0,0,0-.381-.93,1.8,1.8,0,0,0-.644-.6,1.911,1.911,0,0,0-.93-.212,2.2,2.2,0,0,0-1.333.513,8.9,8.9,0,0,0-1.464,1.494v8.684a.4.4,0,0,1-.088.256.646.646,0,0,1-.3.183,2.613,2.613,0,0,1-.564.11,8.729,8.729,0,0,1-.879.037,8.912,8.912,0,0,1-.893-.037,2.613,2.613,0,0,1-.564-.11.646.646,0,0,1-.3-.183.4.4,0,0,1-.088-.256v-7.747a5.37,5.37,0,0,0-.124-1.2,2.921,2.921,0,0,0-.373-.93,1.726,1.726,0,0,0-.644-.6,1.921,1.921,0,0,0-.923-.212,2.221,2.221,0,0,0-1.347.513,8.52,8.52,0,0,0-1.45,1.494v8.684a.4.4,0,0,1-.088.256.646.646,0,0,1-.3.183,2.613,2.613,0,0,1-.564.11,8.912,8.912,0,0,1-.893.037,8.913,8.913,0,0,1-.893-.037,2.612,2.612,0,0,1-.564-.11.646.646,0,0,1-.3-.183.4.4,0,0,1-.088-.256V-56.047a.451.451,0,0,1,.073-.256.537.537,0,0,1,.264-.183,2.1,2.1,0,0,1,.491-.11,6.415,6.415,0,0,1,.754-.037,6.77,6.77,0,0,1,.776.037,1.76,1.76,0,0,1,.476.11.537.537,0,0,1,.242.183.451.451,0,0,1,.073.256v1.508a8.638,8.638,0,0,1,2.16-1.757,4.64,4.64,0,0,1,2.248-.586,5.741,5.741,0,0,1,1.45.168,4.136,4.136,0,0,1,1.15.483,3.609,3.609,0,0,1,.871.754,4.381,4.381,0,0,1,.615.981,11.059,11.059,0,0,1,1.15-1.084,6.763,6.763,0,0,1,1.113-.74,5.091,5.091,0,0,1,1.1-.425,4.544,4.544,0,0,1,1.12-.139,4.949,4.949,0,0,1,2.2.439,3.851,3.851,0,0,1,1.443,1.194,4.8,4.8,0,0,1,.783,1.765,9.442,9.442,0,0,1,.234,2.138Zm16.768-6.722a12.185,12.185,0,0,1-.373,3.141,7.087,7.087,0,0,1-1.091,2.38,4.837,4.837,0,0,1-1.787,1.508,5.459,5.459,0,0,1-2.446.527,4.659,4.659,0,0,1-1.047-.11,4.032,4.032,0,0,1-.923-.337,5.716,5.716,0,0,1-.886-.564,10.478,10.478,0,0,1-.908-.791V-37.8a.428.428,0,0,1-.088.264.656.656,0,0,1-.3.2,2.512,2.512,0,0,1-.564.124,7.437,7.437,0,0,1-.893.044,7.437,7.437,0,0,1-.893-.044,2.513,2.513,0,0,1-.564-.124.656.656,0,0,1-.3-.2.428.428,0,0,1-.088-.264V-56.047a.451.451,0,0,1,.073-.256.536.536,0,0,1,.256-.183,1.977,1.977,0,0,1,.483-.11,6.415,6.415,0,0,1,.754-.037,6.261,6.261,0,0,1,.74.037,1.977,1.977,0,0,1,.483.11.535.535,0,0,1,.256.183.451.451,0,0,1,.073.256v1.538a13.27,13.27,0,0,1,1.12-1.032,6.776,6.776,0,0,1,1.12-.747,5.089,5.089,0,0,1,1.179-.447,5.519,5.519,0,0,1,1.3-.146,4.95,4.95,0,0,1,2.446.564,4.626,4.626,0,0,1,1.648,1.545,6.957,6.957,0,0,1,.93,2.285A12.669,12.669,0,0,1,184.272-49.706Zm-3.837.264a10.025,10.025,0,0,0-.124-1.6,4.74,4.74,0,0,0-.425-1.369,2.606,2.606,0,0,0-.791-.959,2.016,2.016,0,0,0-1.223-.359,2.464,2.464,0,0,0-.725.11,2.815,2.815,0,0,0-.732.359,5.124,5.124,0,0,0-.769.644,9.2,9.2,0,0,0-.835.981v4.306a8.608,8.608,0,0,0,1.479,1.516,2.389,2.389,0,0,0,1.464.535,2.028,2.028,0,0,0,1.223-.366,2.832,2.832,0,0,0,.827-.959,4.833,4.833,0,0,0,.476-1.34A7.39,7.39,0,0,0,180.435-49.442Zm10.471,6.458a.4.4,0,0,1-.088.256.646.646,0,0,1-.3.183,2.612,2.612,0,0,1-.564.11,8.913,8.913,0,0,1-.893.037,8.913,8.913,0,0,1-.893-.037,2.613,2.613,0,0,1-.564-.11.646.646,0,0,1-.3-.183.4.4,0,0,1-.088-.256V-62.241a.428.428,0,0,1,.088-.264.656.656,0,0,1,.3-.2,2.513,2.513,0,0,1,.564-.124,7.437,7.437,0,0,1,.893-.044,7.437,7.437,0,0,1,.893.044,2.512,2.512,0,0,1,.564.124.656.656,0,0,1,.3.2.428.428,0,0,1,.088.264Zm7.366,0a.4.4,0,0,1-.088.256.646.646,0,0,1-.3.183,2.612,2.612,0,0,1-.564.11,8.912,8.912,0,0,1-.893.037,8.912,8.912,0,0,1-.893-.037,2.613,2.613,0,0,1-.564-.11.646.646,0,0,1-.3-.183.4.4,0,0,1-.088-.256V-56.017a.4.4,0,0,1,.088-.256.692.692,0,0,1,.3-.19,2.513,2.513,0,0,1,.564-.124,7.438,7.438,0,0,1,.893-.044,7.438,7.438,0,0,1,.893.044,2.512,2.512,0,0,1,.564.124.692.692,0,0,1,.3.19.4.4,0,0,1,.088.256Zm.278-17.486a2.066,2.066,0,0,1-.454,1.538,2.5,2.5,0,0,1-1.684.425,2.5,2.5,0,0,1-1.677-.41A2.005,2.005,0,0,1,194.3-60.4a2.117,2.117,0,0,1,.447-1.545,2.466,2.466,0,0,1,1.691-.432,2.469,2.469,0,0,1,1.669.417A2.01,2.01,0,0,1,198.551-60.469Zm14.528,17.53a.39.39,0,0,1-.146.322,1,1,0,0,1-.461.168,6.252,6.252,0,0,1-.93.051,6.345,6.345,0,0,1-.959-.051.825.825,0,0,1-.425-.168.421.421,0,0,1-.124-.322v-1.04a5.939,5.939,0,0,1-1.838,1.347,5.34,5.34,0,0,1-2.292.483,6.412,6.412,0,0,1-1.911-.271,4.3,4.3,0,0,1-1.508-.805,3.624,3.624,0,0,1-.989-1.325,4.509,4.509,0,0,1-.351-1.845,4.177,4.177,0,0,1,.447-1.984,3.633,3.633,0,0,1,1.333-1.391,6.635,6.635,0,0,1,2.2-.813,15.749,15.749,0,0,1,3.061-.264h1.274v-.791a4.155,4.155,0,0,0-.124-1.076,1.8,1.8,0,0,0-.41-.769,1.693,1.693,0,0,0-.762-.454,4.062,4.062,0,0,0-1.179-.146,6.061,6.061,0,0,0-1.648.205,9.449,9.449,0,0,0-1.281.454q-.556.249-.93.454a1.36,1.36,0,0,1-.608.205.436.436,0,0,1-.286-.1.747.747,0,0,1-.205-.293,2.025,2.025,0,0,1-.124-.469,3.958,3.958,0,0,1-.044-.615,2.788,2.788,0,0,1,.073-.718,1.105,1.105,0,0,1,.278-.476,2.737,2.737,0,0,1,.718-.469,8.429,8.429,0,0,1,1.2-.476,11.1,11.1,0,0,1,1.5-.359,9.922,9.922,0,0,1,1.677-.139,10.014,10.014,0,0,1,2.629.3,4.433,4.433,0,0,1,1.794.923,3.585,3.585,0,0,1,1.025,1.6,7.492,7.492,0,0,1,.322,2.329Zm-3.617-5.594h-1.406a7.555,7.555,0,0,0-1.523.132,2.921,2.921,0,0,0-1.025.4,1.629,1.629,0,0,0-.578.637,1.922,1.922,0,0,0-.183.857,1.647,1.647,0,0,0,.52,1.289,2.077,2.077,0,0,0,1.443.469,2.7,2.7,0,0,0,1.428-.4,5.922,5.922,0,0,0,1.325-1.157Zm19.77,5.55a.4.4,0,0,1-.088.256.644.644,0,0,1-.293.183,2.493,2.493,0,0,1-.564.11q-.359.037-.886.037t-.9-.037a2.494,2.494,0,0,1-.564-.11.644.644,0,0,1-.293-.183.4.4,0,0,1-.088-.256v-7.454a6.288,6.288,0,0,0-.139-1.494,2.945,2.945,0,0,0-.4-.93,1.794,1.794,0,0,0-.681-.6,2.12,2.12,0,0,0-.974-.212,2.441,2.441,0,0,0-1.421.513,7.673,7.673,0,0,0-1.494,1.494v8.684a.4.4,0,0,1-.088.256.646.646,0,0,1-.3.183,2.613,2.613,0,0,1-.564.11,8.913,8.913,0,0,1-.893.037,8.912,8.912,0,0,1-.893-.037,2.613,2.613,0,0,1-.564-.11.646.646,0,0,1-.3-.183.4.4,0,0,1-.088-.256V-56.047a.451.451,0,0,1,.073-.256.537.537,0,0,1,.264-.183,2.1,2.1,0,0,1,.491-.11,6.415,6.415,0,0,1,.754-.037,6.769,6.769,0,0,1,.776.037,1.76,1.76,0,0,1,.476.11.537.537,0,0,1,.242.183.451.451,0,0,1,.073.256v1.508a8.294,8.294,0,0,1,2.2-1.757,4.977,4.977,0,0,1,2.336-.586,5.17,5.17,0,0,1,2.248.439,3.935,3.935,0,0,1,1.479,1.194,4.846,4.846,0,0,1,.813,1.765,10.289,10.289,0,0,1,.249,2.431Zm13.5-2.08q0,.381-.022.637a3.728,3.728,0,0,1-.059.432,1.328,1.328,0,0,1-.088.286,1.061,1.061,0,0,1-.227.278,3.223,3.223,0,0,1-.6.41,5.926,5.926,0,0,1-.967.432,7.827,7.827,0,0,1-1.179.308,7.232,7.232,0,0,1-1.311.117,7.115,7.115,0,0,1-2.673-.469,5.016,5.016,0,0,1-1.955-1.384,6.086,6.086,0,0,1-1.194-2.233,10.33,10.33,0,0,1-.4-3.017,10.462,10.462,0,0,1,.491-3.39,6.481,6.481,0,0,1,1.369-2.365A5.462,5.462,0,0,1,236-56.413a7.4,7.4,0,0,1,2.636-.454,6.414,6.414,0,0,1,1.15.1,6.653,6.653,0,0,1,1.054.278,5.653,5.653,0,0,1,.879.4,2.686,2.686,0,0,1,.549.381,1.533,1.533,0,0,1,.227.271.923.923,0,0,1,.1.286,3.731,3.731,0,0,1,.059.432q.022.256.022.622a3.381,3.381,0,0,1-.146,1.194q-.146.344-.381.344a.9.9,0,0,1-.527-.205q-.278-.205-.659-.454a4.914,4.914,0,0,0-.908-.454,3.474,3.474,0,0,0-1.259-.205,2.5,2.5,0,0,0-2.2,1.106,5.717,5.717,0,0,0-.762,3.244,8.135,8.135,0,0,0,.19,1.86,3.961,3.961,0,0,0,.564,1.347,2.377,2.377,0,0,0,.937.813,2.994,2.994,0,0,0,1.311.271,3.423,3.423,0,0,0,1.311-.227,5.337,5.337,0,0,0,.959-.505q.41-.278.688-.505a.815.815,0,0,1,.469-.227.332.332,0,0,1,.22.073.518.518,0,0,1,.139.271,3.324,3.324,0,0,1,.081.505Q242.734-45.546,242.734-45.063ZM257.466-49.9a1.421,1.421,0,0,1-.3,1,1.076,1.076,0,0,1-.827.322h-7.952a5.427,5.427,0,0,0,.2,1.516,2.891,2.891,0,0,0,.63,1.157,2.743,2.743,0,0,0,1.113.725,4.767,4.767,0,0,0,1.633.249,9.187,9.187,0,0,0,1.7-.139,11.264,11.264,0,0,0,1.267-.308q.535-.168.886-.308a1.644,1.644,0,0,1,.571-.139.43.43,0,0,1,.22.051.382.382,0,0,1,.146.183,1.225,1.225,0,0,1,.081.373q.022.242.022.608,0,.322-.015.549a3.459,3.459,0,0,1-.044.388.932.932,0,0,1-.088.271,1.015,1.015,0,0,1-.154.212,1.78,1.78,0,0,1-.52.278,8.229,8.229,0,0,1-1.084.344,14.826,14.826,0,0,1-1.508.293,12.536,12.536,0,0,1-1.816.124,9.614,9.614,0,0,1-3.053-.439,5.437,5.437,0,0,1-2.189-1.333,5.544,5.544,0,0,1-1.311-2.255,10.59,10.59,0,0,1-.432-3.193,10.146,10.146,0,0,1,.454-3.141,6.585,6.585,0,0,1,1.318-2.372,5.667,5.667,0,0,1,2.1-1.486,7.231,7.231,0,0,1,2.79-.513,7.305,7.305,0,0,1,2.8.483,5.059,5.059,0,0,1,1.911,1.34,5.405,5.405,0,0,1,1.1,2.028,8.834,8.834,0,0,1,.351,2.548Zm-3.573-1.054a3.788,3.788,0,0,0-.622-2.438,2.408,2.408,0,0,0-2.058-.886,2.672,2.672,0,0,0-1.223.264,2.5,2.5,0,0,0-.864.71,3.239,3.239,0,0,0-.527,1.054,5.251,5.251,0,0,0-.212,1.3Z" transform="translate(794.328 291.012)" fill="#444"/>
    <path id="Subtitle" d="M5.637-27.121v3.638a.222.222,0,0,1-.052.144.365.365,0,0,1-.172.1,1.684,1.684,0,0,1-.324.064,4.465,4.465,0,0,1-.508.024,4.444,4.444,0,0,1-.512-.024,1.775,1.775,0,0,1-.324-.064.339.339,0,0,1-.172-.1.234.234,0,0,1-.048-.144v-3.638L.7-32.757a2.56,2.56,0,0,1-.2-.46.231.231,0,0,1,.048-.248.586.586,0,0,1,.34-.1q.248-.02.688-.02.368,0,.588.016a1.426,1.426,0,0,1,.348.06A.413.413,0,0,1,2.7-33.4a.955.955,0,0,1,.116.184L3.966-30.67q.168.368.332.776t.332.855h.016q.152-.432.312-.839t.312-.776L6.4-33.181a.632.632,0,0,1,.1-.2.423.423,0,0,1,.18-.124,1.146,1.146,0,0,1,.328-.064q.208-.016.552-.016.456,0,.708.02a.593.593,0,0,1,.344.1.231.231,0,0,1,.044.252,2.859,2.859,0,0,1-.192.456Zm10.1.016a5.45,5.45,0,0,1-.24,1.663,3.51,3.51,0,0,1-.728,1.3,3.235,3.235,0,0,1-1.223.839,4.588,4.588,0,0,1-1.719.3,4.708,4.708,0,0,1-1.655-.264A2.977,2.977,0,0,1,9-24.042a3.154,3.154,0,0,1-.688-1.239,5.768,5.768,0,0,1-.224-1.679,5.405,5.405,0,0,1,.244-1.667,3.512,3.512,0,0,1,.732-1.3,3.263,3.263,0,0,1,1.219-.835,4.557,4.557,0,0,1,1.715-.3,4.8,4.8,0,0,1,1.663.26,2.908,2.908,0,0,1,1.163.764,3.181,3.181,0,0,1,.684,1.239A5.8,5.8,0,0,1,15.735-27.1Zm-2.071.08A5.235,5.235,0,0,0,13.581-28a2.285,2.285,0,0,0-.284-.772,1.419,1.419,0,0,0-.532-.512,1.708,1.708,0,0,0-.835-.184,1.767,1.767,0,0,0-.784.164,1.406,1.406,0,0,0-.552.48,2.3,2.3,0,0,0-.324.76,4.3,4.3,0,0,0-.108,1.011,5,5,0,0,0,.088.971,2.4,2.4,0,0,0,.284.772,1.353,1.353,0,0,0,.532.508,1.744,1.744,0,0,0,.832.18,1.786,1.786,0,0,0,.792-.164,1.418,1.418,0,0,0,.552-.476,2.193,2.193,0,0,0,.32-.756A4.454,4.454,0,0,0,13.665-27.025ZM24.09-23.467a.246.246,0,0,1-.04.14.292.292,0,0,1-.14.1,1.079,1.079,0,0,1-.264.06,3.5,3.5,0,0,1-.412.02,3.676,3.676,0,0,1-.428-.02,1.014,1.014,0,0,1-.26-.06.292.292,0,0,1-.136-.1.246.246,0,0,1-.04-.14v-.824a4.528,4.528,0,0,1-1.2.959,2.7,2.7,0,0,1-1.267.32,2.843,2.843,0,0,1-1.235-.24,2.132,2.132,0,0,1-.808-.656,2.636,2.636,0,0,1-.44-.963,5.938,5.938,0,0,1-.132-1.363V-30.6a.23.23,0,0,1,.044-.14.324.324,0,0,1,.16-.1,1.436,1.436,0,0,1,.312-.06q.2-.02.484-.02a4.865,4.865,0,0,1,.488.02,1.426,1.426,0,0,1,.308.06.353.353,0,0,1,.164.1.217.217,0,0,1,.048.14v4.03a3.852,3.852,0,0,0,.072.855,1.5,1.5,0,0,0,.22.508,1.011,1.011,0,0,0,.376.328,1.158,1.158,0,0,0,.532.116,1.315,1.315,0,0,0,.772-.28,4.609,4.609,0,0,0,.828-.816V-30.6a.23.23,0,0,1,.044-.14.324.324,0,0,1,.16-.1,1.426,1.426,0,0,1,.308-.06,4.865,4.865,0,0,1,.488-.02,4.865,4.865,0,0,1,.488.02,1.351,1.351,0,0,1,.3.06.351.351,0,0,1,.16.1.217.217,0,0,1,.048.14Zm6.6-6.468q0,.288-.016.472a1.451,1.451,0,0,1-.048.288.282.282,0,0,1-.084.144.21.21,0,0,1-.132.04.441.441,0,0,1-.144-.028l-.18-.06q-.1-.032-.22-.06a1.162,1.162,0,0,0-.264-.028.889.889,0,0,0-.336.068,1.417,1.417,0,0,0-.348.212,2.582,2.582,0,0,0-.376.384,6.244,6.244,0,0,0-.42.592v4.445a.217.217,0,0,1-.048.14.353.353,0,0,1-.164.1,1.426,1.426,0,0,1-.308.06,4.866,4.866,0,0,1-.488.02,4.866,4.866,0,0,1-.488-.02,1.426,1.426,0,0,1-.308-.06.353.353,0,0,1-.164-.1.217.217,0,0,1-.048-.14V-30.6a.246.246,0,0,1,.04-.14.293.293,0,0,1,.144-.1,1.148,1.148,0,0,1,.268-.06,3.5,3.5,0,0,1,.412-.02,3.7,3.7,0,0,1,.424.02.961.961,0,0,1,.26.06.293.293,0,0,1,.132.1.246.246,0,0,1,.04.14v.887a5.689,5.689,0,0,1,.528-.66,2.984,2.984,0,0,1,.472-.412,1.484,1.484,0,0,1,.448-.212,1.724,1.724,0,0,1,.448-.06q.1,0,.224.012A2.172,2.172,0,0,1,30.2-31a1.641,1.641,0,0,1,.224.064.443.443,0,0,1,.14.076.248.248,0,0,1,.064.088.693.693,0,0,1,.036.132,1.959,1.959,0,0,1,.024.252Q30.694-30.223,30.694-29.935ZM40.9-23.563a.675.675,0,0,1-.1.22.4.4,0,0,1-.208.128,1.669,1.669,0,0,1-.392.056q-.248.012-.648.012-.32,0-.548,0t-.388-.02a1.3,1.3,0,0,1-.26-.048.615.615,0,0,1-.168-.08.331.331,0,0,1-.1-.116,1,1,0,0,1-.068-.172L34.94-32.757a2.464,2.464,0,0,1-.116-.456.266.266,0,0,1,.08-.252.616.616,0,0,1,.34-.1q.24-.02.672-.02.368,0,.576.016a1.292,1.292,0,0,1,.32.056.272.272,0,0,1,.156.12,1.22,1.22,0,0,1,.084.2l2.518,7.979h.008l2.471-7.939a.832.832,0,0,1,.08-.22.321.321,0,0,1,.164-.132,1.12,1.12,0,0,1,.332-.064q.216-.016.592-.016a5.206,5.206,0,0,1,.572.024.416.416,0,0,1,.28.116.312.312,0,0,1,.048.26,2.978,2.978,0,0,1-.124.448Zm6.428.1a.217.217,0,0,1-.048.14.353.353,0,0,1-.164.1,1.426,1.426,0,0,1-.308.06,4.866,4.866,0,0,1-.488.02,4.866,4.866,0,0,1-.488-.02,1.426,1.426,0,0,1-.308-.06.353.353,0,0,1-.164-.1.217.217,0,0,1-.048-.14v-7.116a.217.217,0,0,1,.048-.14.378.378,0,0,1,.164-.1,1.372,1.372,0,0,1,.308-.068,4.06,4.06,0,0,1,.488-.024,4.06,4.06,0,0,1,.488.024,1.372,1.372,0,0,1,.308.068.378.378,0,0,1,.164.1.217.217,0,0,1,.048.14Zm.152-9.546a1.128,1.128,0,0,1-.248.839,1.365,1.365,0,0,1-.919.232,1.364,1.364,0,0,1-.915-.224,1.1,1.1,0,0,1-.236-.808,1.156,1.156,0,0,1,.244-.843,1.346,1.346,0,0,1,.923-.236,1.348,1.348,0,0,1,.911.228A1.1,1.1,0,0,1,47.484-33.013Zm6.436,3.078q0,.288-.016.472a1.451,1.451,0,0,1-.048.288.282.282,0,0,1-.084.144.21.21,0,0,1-.132.04.441.441,0,0,1-.144-.028l-.18-.06q-.1-.032-.22-.06a1.162,1.162,0,0,0-.264-.028.889.889,0,0,0-.336.068,1.417,1.417,0,0,0-.348.212,2.582,2.582,0,0,0-.376.384,6.243,6.243,0,0,0-.42.592v4.445a.217.217,0,0,1-.048.14.353.353,0,0,1-.164.1,1.426,1.426,0,0,1-.308.06,4.866,4.866,0,0,1-.488.02,4.866,4.866,0,0,1-.488-.02,1.426,1.426,0,0,1-.308-.06.353.353,0,0,1-.164-.1.217.217,0,0,1-.048-.14V-30.6a.246.246,0,0,1,.04-.14.293.293,0,0,1,.144-.1,1.148,1.148,0,0,1,.268-.06,3.5,3.5,0,0,1,.412-.02,3.7,3.7,0,0,1,.424.02.961.961,0,0,1,.26.06.293.293,0,0,1,.132.1.246.246,0,0,1,.04.14v.887a5.689,5.689,0,0,1,.528-.66,2.984,2.984,0,0,1,.472-.412,1.484,1.484,0,0,1,.448-.212,1.724,1.724,0,0,1,.448-.06q.1,0,.224.012a2.172,2.172,0,0,1,.248.04,1.641,1.641,0,0,1,.224.064.443.443,0,0,1,.14.076.248.248,0,0,1,.064.088.693.693,0,0,1,.036.132,1.958,1.958,0,0,1,.024.252Q53.92-30.223,53.921-29.935Zm5.461,5.765a2.517,2.517,0,0,1-.044.54.582.582,0,0,1-.116.264.632.632,0,0,1-.212.136,1.985,1.985,0,0,1-.328.1,3.42,3.42,0,0,1-.408.068,4.089,4.089,0,0,1-.444.024,3.189,3.189,0,0,1-1.039-.152,1.727,1.727,0,0,1-.728-.468,1.947,1.947,0,0,1-.424-.8,4.194,4.194,0,0,1-.136-1.135v-3.654h-.855q-.152,0-.232-.188a1.751,1.751,0,0,1-.08-.628,3.233,3.233,0,0,1,.02-.392.944.944,0,0,1,.06-.252.293.293,0,0,1,.1-.132.246.246,0,0,1,.14-.04H55.5v-1.591a.248.248,0,0,1,.044-.144.33.33,0,0,1,.16-.108,1.268,1.268,0,0,1,.312-.064q.2-.02.484-.02t.492.02a1.2,1.2,0,0,1,.308.064.358.358,0,0,1,.16.108.234.234,0,0,1,.048.144v1.591h1.551a.246.246,0,0,1,.14.04.293.293,0,0,1,.1.132.944.944,0,0,1,.06.252,3.234,3.234,0,0,1,.02.392,1.751,1.751,0,0,1-.08.628q-.08.188-.232.188H57.51v3.35a1.667,1.667,0,0,0,.184.875.713.713,0,0,0,.656.292,1.352,1.352,0,0,0,.288-.028,1.832,1.832,0,0,0,.228-.064q.1-.036.168-.064a.329.329,0,0,1,.124-.028.169.169,0,0,1,.092.028.188.188,0,0,1,.068.112,1.735,1.735,0,0,1,.044.228A2.764,2.764,0,0,1,59.381-24.17Zm8.219.7a.246.246,0,0,1-.04.14.292.292,0,0,1-.14.1,1.079,1.079,0,0,1-.264.06,3.5,3.5,0,0,1-.412.02,3.676,3.676,0,0,1-.428-.02,1.014,1.014,0,0,1-.26-.06.292.292,0,0,1-.136-.1.246.246,0,0,1-.04-.14v-.824a4.528,4.528,0,0,1-1.2.959,2.7,2.7,0,0,1-1.267.32,2.843,2.843,0,0,1-1.235-.24,2.132,2.132,0,0,1-.808-.656,2.636,2.636,0,0,1-.44-.963,5.938,5.938,0,0,1-.132-1.363V-30.6a.23.23,0,0,1,.044-.14.324.324,0,0,1,.16-.1,1.436,1.436,0,0,1,.312-.06q.2-.02.484-.02a4.865,4.865,0,0,1,.488.02,1.426,1.426,0,0,1,.308.06.353.353,0,0,1,.164.1.217.217,0,0,1,.048.14v4.03a3.852,3.852,0,0,0,.072.855,1.5,1.5,0,0,0,.22.508,1.011,1.011,0,0,0,.376.328,1.158,1.158,0,0,0,.532.116,1.315,1.315,0,0,0,.772-.28,4.609,4.609,0,0,0,.827-.816V-30.6a.23.23,0,0,1,.044-.14.324.324,0,0,1,.16-.1,1.426,1.426,0,0,1,.308-.06,4.865,4.865,0,0,1,.488-.02,4.865,4.865,0,0,1,.488.02,1.351,1.351,0,0,1,.3.06.352.352,0,0,1,.16.1.217.217,0,0,1,.048.14Zm8.1.024a.213.213,0,0,1-.08.176.548.548,0,0,1-.252.092,3.413,3.413,0,0,1-.508.028,3.464,3.464,0,0,1-.524-.028.451.451,0,0,1-.232-.092.23.23,0,0,1-.068-.176v-.568a3.242,3.242,0,0,1-1,.736,2.915,2.915,0,0,1-1.251.264,3.5,3.5,0,0,1-1.043-.148,2.35,2.35,0,0,1-.824-.44,1.979,1.979,0,0,1-.54-.724,2.461,2.461,0,0,1-.192-1.007,2.28,2.28,0,0,1,.244-1.083,1.983,1.983,0,0,1,.728-.76,3.622,3.622,0,0,1,1.2-.444,8.6,8.6,0,0,1,1.671-.144h.7v-.432a2.269,2.269,0,0,0-.068-.588.98.98,0,0,0-.224-.42.924.924,0,0,0-.416-.248,2.218,2.218,0,0,0-.644-.08,3.309,3.309,0,0,0-.9.112,5.158,5.158,0,0,0-.7.248q-.3.136-.508.248a.743.743,0,0,1-.332.112.238.238,0,0,1-.156-.056.408.408,0,0,1-.112-.16,1.105,1.105,0,0,1-.068-.256,2.161,2.161,0,0,1-.024-.336,1.523,1.523,0,0,1,.04-.392.6.6,0,0,1,.152-.26,1.5,1.5,0,0,1,.392-.256,4.6,4.6,0,0,1,.656-.26,6.062,6.062,0,0,1,.82-.2,5.417,5.417,0,0,1,.915-.076,5.467,5.467,0,0,1,1.435.164,2.42,2.42,0,0,1,.979.5,1.957,1.957,0,0,1,.56.875A4.091,4.091,0,0,1,75.7-28.24ZM73.725-26.5h-.768a4.124,4.124,0,0,0-.831.072,1.594,1.594,0,0,0-.56.216.89.89,0,0,0-.316.348,1.049,1.049,0,0,0-.1.468.9.9,0,0,0,.284.7,1.134,1.134,0,0,0,.788.256A1.475,1.475,0,0,0,73-24.65a3.233,3.233,0,0,0,.724-.632Zm6,3.03a.217.217,0,0,1-.048.14.353.353,0,0,1-.164.1,1.426,1.426,0,0,1-.308.06,4.866,4.866,0,0,1-.488.02,4.866,4.866,0,0,1-.488-.02,1.426,1.426,0,0,1-.308-.06.353.353,0,0,1-.164-.1.217.217,0,0,1-.048-.14V-33.98a.234.234,0,0,1,.048-.144.358.358,0,0,1,.164-.108,1.372,1.372,0,0,1,.308-.068,4.06,4.06,0,0,1,.488-.024,4.059,4.059,0,0,1,.488.024,1.371,1.371,0,0,1,.308.068.358.358,0,0,1,.164.108.234.234,0,0,1,.048.144Zm14.3-.512a2.789,2.789,0,0,1,.12.456.275.275,0,0,1-.064.252.52.52,0,0,1-.312.1q-.224.02-.616.02-.408,0-.636-.012a1.57,1.57,0,0,1-.348-.048.317.317,0,0,1-.168-.1.547.547,0,0,1-.08-.168l-.7-2.079H87.34l-.656,2.023a.645.645,0,0,1-.084.188.343.343,0,0,1-.168.12,1.223,1.223,0,0,1-.328.06q-.212.016-.556.016a5.321,5.321,0,0,1-.576-.024.439.439,0,0,1-.288-.116.312.312,0,0,1-.056-.26,2.6,2.6,0,0,1,.12-.448l3.19-9.179a.8.8,0,0,1,.112-.22.4.4,0,0,1,.2-.128,1.609,1.609,0,0,1,.388-.056q.248-.012.656-.012.472,0,.752.012a2,2,0,0,1,.436.056.415.415,0,0,1,.224.132.773.773,0,0,1,.116.24Zm-4.749-7.587h-.008l-1.463,4.4h2.934Zm11.1,6.084a2.4,2.4,0,0,1-.228,1.071,2.132,2.132,0,0,1-.644.776,2.9,2.9,0,0,1-.983.468,4.636,4.636,0,0,1-1.231.156,4.691,4.691,0,0,1-.764-.06,4.62,4.62,0,0,1-.652-.152,3.408,3.408,0,0,1-.48-.188,1.182,1.182,0,0,1-.28-.18.557.557,0,0,1-.136-.264,2.207,2.207,0,0,1-.048-.532,3.425,3.425,0,0,1,.016-.372.949.949,0,0,1,.048-.224.21.21,0,0,1,.08-.112.235.235,0,0,1,.12-.028.6.6,0,0,1,.26.1q.172.1.428.22a4.54,4.54,0,0,0,.6.224,2.637,2.637,0,0,0,.772.1,1.9,1.9,0,0,0,.484-.056,1.219,1.219,0,0,0,.368-.16.678.678,0,0,0,.236-.264.812.812,0,0,0,.08-.368.61.61,0,0,0-.148-.412,1.314,1.314,0,0,0-.392-.3,4.5,4.5,0,0,0-.552-.24q-.308-.112-.632-.248a5.786,5.786,0,0,1-.632-.312,2.409,2.409,0,0,1-.552-.432,1.963,1.963,0,0,1-.392-.616,2.268,2.268,0,0,1-.148-.863,2.192,2.192,0,0,1,.2-.939,2.043,2.043,0,0,1,.576-.732,2.727,2.727,0,0,1,.915-.472,4.07,4.07,0,0,1,1.211-.168,4.334,4.334,0,0,1,.652.048,4.761,4.761,0,0,1,.572.12,2.729,2.729,0,0,1,.432.156,1.423,1.423,0,0,1,.252.144.4.4,0,0,1,.108.12.506.506,0,0,1,.048.144q.016.084.028.208t.012.308q0,.216-.012.352a.921.921,0,0,1-.04.216.192.192,0,0,1-.076.108.218.218,0,0,1-.112.028.546.546,0,0,1-.224-.084,4.046,4.046,0,0,0-.38-.18,4.485,4.485,0,0,0-.528-.18,2.54,2.54,0,0,0-.684-.084,1.761,1.761,0,0,0-.472.056.9.9,0,0,0-.328.16.673.673,0,0,0-.192.244.713.713,0,0,0-.064.3.6.6,0,0,0,.152.416,1.393,1.393,0,0,0,.4.3,4.536,4.536,0,0,0,.564.24q.316.112.64.244a5.85,5.85,0,0,1,.64.308,2.419,2.419,0,0,1,.564.432,1.994,1.994,0,0,1,.4.612A2.139,2.139,0,0,1,100.373-25.482Zm6.532,0a2.4,2.4,0,0,1-.228,1.071,2.132,2.132,0,0,1-.644.776,2.9,2.9,0,0,1-.983.468,4.636,4.636,0,0,1-1.231.156,4.691,4.691,0,0,1-.764-.06,4.621,4.621,0,0,1-.652-.152,3.409,3.409,0,0,1-.48-.188,1.182,1.182,0,0,1-.28-.18.557.557,0,0,1-.136-.264,2.208,2.208,0,0,1-.048-.532,3.423,3.423,0,0,1,.016-.372.949.949,0,0,1,.048-.224.21.21,0,0,1,.08-.112.235.235,0,0,1,.12-.028.6.6,0,0,1,.26.1q.172.1.428.22a4.54,4.54,0,0,0,.6.224,2.637,2.637,0,0,0,.772.1,1.9,1.9,0,0,0,.484-.056,1.219,1.219,0,0,0,.368-.16.678.678,0,0,0,.236-.264.812.812,0,0,0,.08-.368.61.61,0,0,0-.148-.412,1.314,1.314,0,0,0-.392-.3,4.5,4.5,0,0,0-.552-.24q-.308-.112-.632-.248a5.786,5.786,0,0,1-.632-.312,2.409,2.409,0,0,1-.552-.432,1.963,1.963,0,0,1-.392-.616,2.268,2.268,0,0,1-.148-.863,2.191,2.191,0,0,1,.2-.939,2.043,2.043,0,0,1,.576-.732,2.727,2.727,0,0,1,.915-.472,4.069,4.069,0,0,1,1.211-.168,4.334,4.334,0,0,1,.652.048,4.76,4.76,0,0,1,.572.12,2.729,2.729,0,0,1,.432.156,1.424,1.424,0,0,1,.252.144.4.4,0,0,1,.108.12.507.507,0,0,1,.048.144q.016.084.028.208t.012.308q0,.216-.012.352a.92.92,0,0,1-.04.216.192.192,0,0,1-.076.108.218.218,0,0,1-.112.028.546.546,0,0,1-.224-.084,4.045,4.045,0,0,0-.38-.18,4.485,4.485,0,0,0-.528-.18,2.54,2.54,0,0,0-.684-.084,1.761,1.761,0,0,0-.472.056.9.9,0,0,0-.328.16.673.673,0,0,0-.192.244.713.713,0,0,0-.064.3.6.6,0,0,0,.152.416,1.394,1.394,0,0,0,.4.3,4.535,4.535,0,0,0,.564.24q.316.112.64.244a5.851,5.851,0,0,1,.64.308,2.418,2.418,0,0,1,.564.432,1.993,1.993,0,0,1,.4.612A2.139,2.139,0,0,1,106.9-25.482Zm3.526,2.015a.217.217,0,0,1-.048.14.353.353,0,0,1-.164.1,1.426,1.426,0,0,1-.308.06,4.866,4.866,0,0,1-.488.02,4.866,4.866,0,0,1-.488-.02,1.426,1.426,0,0,1-.308-.06.353.353,0,0,1-.164-.1.217.217,0,0,1-.048-.14v-7.116a.217.217,0,0,1,.048-.14.378.378,0,0,1,.164-.1,1.372,1.372,0,0,1,.308-.068,4.06,4.06,0,0,1,.488-.024,4.06,4.06,0,0,1,.488.024,1.372,1.372,0,0,1,.308.068.378.378,0,0,1,.164.1.217.217,0,0,1,.048.14Zm.152-9.546a1.128,1.128,0,0,1-.248.839,1.365,1.365,0,0,1-.919.232,1.364,1.364,0,0,1-.915-.224,1.1,1.1,0,0,1-.236-.808,1.156,1.156,0,0,1,.244-.843,1.346,1.346,0,0,1,.923-.236,1.348,1.348,0,0,1,.911.228A1.1,1.1,0,0,1,110.583-33.013Zm6.876,7.531a2.4,2.4,0,0,1-.228,1.071,2.132,2.132,0,0,1-.644.776,2.9,2.9,0,0,1-.983.468,4.636,4.636,0,0,1-1.231.156,4.691,4.691,0,0,1-.764-.06,4.621,4.621,0,0,1-.652-.152,3.408,3.408,0,0,1-.48-.188,1.182,1.182,0,0,1-.28-.18.557.557,0,0,1-.136-.264,2.207,2.207,0,0,1-.048-.532,3.424,3.424,0,0,1,.016-.372.949.949,0,0,1,.048-.224.21.21,0,0,1,.08-.112.235.235,0,0,1,.12-.028.6.6,0,0,1,.26.1q.172.1.428.22a4.54,4.54,0,0,0,.6.224,2.637,2.637,0,0,0,.772.1,1.9,1.9,0,0,0,.484-.056,1.219,1.219,0,0,0,.368-.16.678.678,0,0,0,.236-.264.812.812,0,0,0,.08-.368.61.61,0,0,0-.148-.412,1.314,1.314,0,0,0-.392-.3,4.5,4.5,0,0,0-.552-.24q-.308-.112-.632-.248a5.785,5.785,0,0,1-.632-.312,2.409,2.409,0,0,1-.552-.432,1.963,1.963,0,0,1-.392-.616,2.268,2.268,0,0,1-.148-.863,2.191,2.191,0,0,1,.2-.939,2.043,2.043,0,0,1,.576-.732,2.727,2.727,0,0,1,.915-.472,4.069,4.069,0,0,1,1.211-.168,4.334,4.334,0,0,1,.652.048,4.76,4.76,0,0,1,.572.12,2.73,2.73,0,0,1,.432.156,1.424,1.424,0,0,1,.252.144.4.4,0,0,1,.108.12.507.507,0,0,1,.048.144q.016.084.028.208t.012.308q0,.216-.012.352a.921.921,0,0,1-.04.216.192.192,0,0,1-.076.108.218.218,0,0,1-.112.028.546.546,0,0,1-.224-.084,4.046,4.046,0,0,0-.38-.18,4.485,4.485,0,0,0-.528-.18,2.54,2.54,0,0,0-.684-.084,1.762,1.762,0,0,0-.472.056.9.9,0,0,0-.328.16.673.673,0,0,0-.192.244.713.713,0,0,0-.064.3.6.6,0,0,0,.152.416,1.393,1.393,0,0,0,.4.3,4.536,4.536,0,0,0,.564.24q.316.112.64.244a5.853,5.853,0,0,1,.64.308,2.418,2.418,0,0,1,.564.432,1.994,1.994,0,0,1,.4.612A2.139,2.139,0,0,1,117.458-25.482Zm5.549,1.311a2.516,2.516,0,0,1-.044.54.582.582,0,0,1-.116.264.632.632,0,0,1-.212.136,1.985,1.985,0,0,1-.328.1,3.421,3.421,0,0,1-.408.068,4.089,4.089,0,0,1-.444.024,3.189,3.189,0,0,1-1.039-.152,1.727,1.727,0,0,1-.728-.468,1.947,1.947,0,0,1-.424-.8,4.193,4.193,0,0,1-.136-1.135v-3.654h-.855q-.152,0-.232-.188a1.751,1.751,0,0,1-.08-.628,3.23,3.23,0,0,1,.02-.392.943.943,0,0,1,.06-.252.293.293,0,0,1,.1-.132.246.246,0,0,1,.14-.04h.847v-1.591a.248.248,0,0,1,.044-.144.33.33,0,0,1,.16-.108,1.268,1.268,0,0,1,.312-.064q.2-.02.484-.02t.492.02a1.2,1.2,0,0,1,.308.064.358.358,0,0,1,.16.108.234.234,0,0,1,.048.144v1.591h1.551a.246.246,0,0,1,.14.04.293.293,0,0,1,.1.132.944.944,0,0,1,.06.252,3.234,3.234,0,0,1,.02.392,1.751,1.751,0,0,1-.08.628q-.08.188-.232.188h-1.559v3.35a1.667,1.667,0,0,0,.184.875.713.713,0,0,0,.656.292,1.352,1.352,0,0,0,.288-.028,1.832,1.832,0,0,0,.228-.064q.1-.036.168-.064a.329.329,0,0,1,.124-.028.169.169,0,0,1,.092.028.188.188,0,0,1,.068.112,1.737,1.737,0,0,1,.044.228A2.764,2.764,0,0,1,123.007-24.17Zm7.372.728a.213.213,0,0,1-.08.176.548.548,0,0,1-.252.092,3.413,3.413,0,0,1-.508.028,3.464,3.464,0,0,1-.524-.028.451.451,0,0,1-.232-.092.23.23,0,0,1-.068-.176v-.568a3.243,3.243,0,0,1-1,.736,2.915,2.915,0,0,1-1.251.264,3.5,3.5,0,0,1-1.043-.148,2.35,2.35,0,0,1-.824-.44,1.979,1.979,0,0,1-.54-.724,2.462,2.462,0,0,1-.192-1.007,2.28,2.28,0,0,1,.244-1.083,1.983,1.983,0,0,1,.728-.76,3.622,3.622,0,0,1,1.2-.444,8.6,8.6,0,0,1,1.671-.144h.7v-.432a2.269,2.269,0,0,0-.068-.588.98.98,0,0,0-.224-.42.924.924,0,0,0-.416-.248,2.218,2.218,0,0,0-.644-.08,3.309,3.309,0,0,0-.9.112,5.159,5.159,0,0,0-.7.248q-.3.136-.508.248a.743.743,0,0,1-.332.112.238.238,0,0,1-.156-.056.408.408,0,0,1-.112-.16,1.105,1.105,0,0,1-.068-.256,2.162,2.162,0,0,1-.024-.336,1.523,1.523,0,0,1,.04-.392.6.6,0,0,1,.152-.26,1.5,1.5,0,0,1,.392-.256,4.6,4.6,0,0,1,.656-.26,6.061,6.061,0,0,1,.82-.2,5.418,5.418,0,0,1,.915-.076,5.467,5.467,0,0,1,1.435.164,2.42,2.42,0,0,1,.979.5,1.957,1.957,0,0,1,.56.875,4.09,4.09,0,0,1,.176,1.271ZM128.4-26.5h-.768a4.124,4.124,0,0,0-.831.072,1.594,1.594,0,0,0-.56.216.889.889,0,0,0-.316.348,1.05,1.05,0,0,0-.1.468.9.9,0,0,0,.284.7,1.134,1.134,0,0,0,.788.256,1.475,1.475,0,0,0,.78-.216,3.233,3.233,0,0,0,.724-.632Zm10.794,3.03a.217.217,0,0,1-.048.14.351.351,0,0,1-.16.1,1.361,1.361,0,0,1-.308.06q-.2.02-.484.02t-.492-.02a1.362,1.362,0,0,1-.308-.06.352.352,0,0,1-.16-.1.217.217,0,0,1-.048-.14v-4.07a3.431,3.431,0,0,0-.076-.816,1.608,1.608,0,0,0-.22-.508.979.979,0,0,0-.372-.328,1.158,1.158,0,0,0-.532-.116,1.332,1.332,0,0,0-.776.28,4.189,4.189,0,0,0-.816.816v4.741a.217.217,0,0,1-.048.14.353.353,0,0,1-.164.1,1.426,1.426,0,0,1-.308.06,4.866,4.866,0,0,1-.488.02,4.865,4.865,0,0,1-.488-.02,1.426,1.426,0,0,1-.308-.06.353.353,0,0,1-.164-.1.217.217,0,0,1-.048-.14V-30.6a.246.246,0,0,1,.04-.14.293.293,0,0,1,.144-.1,1.148,1.148,0,0,1,.268-.06,3.5,3.5,0,0,1,.412-.02,3.7,3.7,0,0,1,.424.02.961.961,0,0,1,.26.06.293.293,0,0,1,.132.1.246.246,0,0,1,.04.14v.824a4.528,4.528,0,0,1,1.2-.959,2.717,2.717,0,0,1,1.275-.32,2.822,2.822,0,0,1,1.227.24,2.148,2.148,0,0,1,.808.652,2.646,2.646,0,0,1,.444.963,5.617,5.617,0,0,1,.136,1.327Zm6.044-.7a2.516,2.516,0,0,1-.044.54.582.582,0,0,1-.116.264.632.632,0,0,1-.212.136,1.985,1.985,0,0,1-.328.1,3.42,3.42,0,0,1-.408.068,4.089,4.089,0,0,1-.444.024,3.189,3.189,0,0,1-1.039-.152,1.727,1.727,0,0,1-.728-.468,1.947,1.947,0,0,1-.424-.8,4.194,4.194,0,0,1-.136-1.135v-3.654h-.855q-.152,0-.232-.188a1.751,1.751,0,0,1-.08-.628,3.227,3.227,0,0,1,.02-.392.944.944,0,0,1,.06-.252.293.293,0,0,1,.1-.132.246.246,0,0,1,.14-.04h.847v-1.591a.248.248,0,0,1,.044-.144.33.33,0,0,1,.16-.108,1.268,1.268,0,0,1,.312-.064q.2-.02.484-.02t.492.02a1.2,1.2,0,0,1,.308.064.358.358,0,0,1,.16.108.234.234,0,0,1,.048.144v1.591h1.551a.246.246,0,0,1,.14.04.293.293,0,0,1,.1.132.944.944,0,0,1,.06.252,3.23,3.23,0,0,1,.02.392,1.752,1.752,0,0,1-.08.628q-.08.188-.232.188h-1.559v3.35a1.667,1.667,0,0,0,.184.875.713.713,0,0,0,.656.292,1.352,1.352,0,0,0,.288-.028,1.832,1.832,0,0,0,.228-.064q.1-.036.168-.064a.329.329,0,0,1,.124-.028.169.169,0,0,1,.092.028.188.188,0,0,1,.068.112,1.732,1.732,0,0,1,.044.228A2.761,2.761,0,0,1,145.242-24.17Z" transform="translate(816.46 295.715)" fill="#444"/>
    <g id="Faceless_Compliance" data-name="Faceless Compliance" transform="translate(751.432 220.47)">
      <path id="Head" d="M684.661,375.99c.019.014,4.092.83,4.155.884.03.249-18.2,5.417-18.2,5.417l-15.375-12.507s5.559,1.356,5.539,1.315C667.891,367.469,677.422,367.581,684.661,375.99Z" transform="translate(-651.969 -368.83)" fill="#444"/>
      <path id="Back" d="M667.223,350.026a12.474,12.474,0,0,1,2.107-4.466c.007-.03-1.512-3.45-1.512-3.45l16.494,13.87-5.906,28.979-1.114-3.25s-6.093.015-6.052,0c-.019.029,1.494-10.422,1.48-11.38a8.774,8.774,0,0,0-1.678-5.143,31.309,31.309,0,0,1-2.25-3.294,15.766,15.766,0,0,1-1.858-5.678A18.3,18.3,0,0,1,667.223,350.026Z" transform="translate(-666.804 -338.097)" fill="#444"/>
      <path id="Mouth" d="M661.111,629.062c-.032-.064,3.777-18.761,5.658-28.134.738.074,17.014,1.771,17.651,1.872a.823.823,0,0,1,.511.335,2.415,2.415,0,0,1,.264,1.868,1.054,1.054,0,0,1-.714.852c-.681.244-1.336.56-2,.844a.885.885,0,0,0-.45,1.371,3.576,3.576,0,0,0,.707.9,1.123,1.123,0,0,1-.5,1.965c-.034.005-.063.035-.126.072.094.106.181.2.261.295a1.281,1.281,0,0,1-.159,1.808,1.731,1.731,0,0,0-.52,2.184,14.275,14.275,0,0,1,.628,1.743,2.742,2.742,0,0,1-.131,1.787,2.2,2.2,0,0,1-2.159,1.448c-2.191.018-4.589.02-6.78,0-.383,0-.363.1-.371.1a27.5,27.5,0,0,0-1.464,5.4h-8.137S661.258,629,661.111,629.062Z" transform="translate(-645.433 -582.449)" fill="#444"/>
    </g>
  </g>
</svg>
