<svg xmlns="http://www.w3.org/2000/svg" viewBox="0 0 269.04 53.16"><defs><style>.cls-1{fill:#25d;}.cls-2{fill:#f90;}</style></defs><g id="Layer_2" data-name="Layer 2"><g id="Layer_5_copy" data-name="Layer 5 copy"><path class="cls-1" d="M152.1.5c5.77-.13,10.26,6.31,6.41,12.32l-13.9,21.3a2.14,2.14,0,0,1-3.35.27l-4.17-6.34a2.23,2.23,0,0,1-.15-2.47l8.12-12.38a1.14,1.14,0,0,0-.95-1.77H126.55a1.25,1.25,0,0,0-1,.55l-2.4,3.62a3,3,0,0,1-.39.47,1.81,1.81,0,0,1-2.19.48,3.46,3.46,0,0,1-1.16-.84l-3.94-4.28-3.66-4a4.15,4.15,0,0,1,3-7Z"/><path class="cls-2" d="M118.52,52.65c-5.77.13-10.26-6.31-6.41-12.32L126,19a2.14,2.14,0,0,1,3.35-.27l4.17,6.34a2.23,2.23,0,0,1,.15,2.47L125.56,40a1.14,1.14,0,0,0,1,1.77h17.56a1.25,1.25,0,0,0,1-.55l2.4-3.62a3,3,0,0,1,.39-.47,1.81,1.81,0,0,1,2.19-.48,3.46,3.46,0,0,1,1.16.84l3.94,4.28,3.66,4a4.15,4.15,0,0,1-3.05,7Z"/><path class="cls-2" d="M3.57,52.77a5.5,5.5,0,0,1-2.06-.88,2.7,2.7,0,0,1-1-1.42,5.06,5.06,0,0,1-.4-1.67,12.92,12.92,0,0,1-.08-2V7.13A18,18,0,0,1,.16,4.67a5.84,5.84,0,0,1,.71-1.9A3.46,3.46,0,0,1,3,1.26a18.17,18.17,0,0,1,4-.39,13.89,13.89,0,0,1,3.42.31,7.33,7.33,0,0,1,2.06.88,3.6,3.6,0,0,1,1.11,1.5,9.15,9.15,0,0,1,.4,1.59V7.21L14,28.48l21.11-8.73V7.13a18,18,0,0,1,.16-2.46A5.62,5.62,0,0,1,36,2.77a3.46,3.46,0,0,1,2.14-1.51,18.2,18.2,0,0,1,4-.39,13.75,13.75,0,0,1,3.41.31,7.28,7.28,0,0,1,2.07.88,3.6,3.6,0,0,1,1.11,1.5,10,10,0,0,1,.39,1.59V46.89A19.91,19.91,0,0,1,49,49.35a5.64,5.64,0,0,1-.79,1.83,3.19,3.19,0,0,1-2.14,1.51,14.05,14.05,0,0,1-4,.47,13.33,13.33,0,0,1-3.41-.39,5.5,5.5,0,0,1-2.06-.88,2.76,2.76,0,0,1-1-1.42,5.28,5.28,0,0,1-.39-1.67,12.92,12.92,0,0,1-.08-2V32.29L14,40.7l.08,6.19A19.91,19.91,0,0,1,14,49.35a5.69,5.69,0,0,1-.8,1.83A3.16,3.16,0,0,1,11,52.69a14.05,14.05,0,0,1-4,.47A13.39,13.39,0,0,1,3.57,52.77Z"/><path class="cls-1" d="M204.92,52.12a3.13,3.13,0,0,1-1.21-1.34c-.26-.47-.6-1.18-1.07-2.12l-3.47-7.61-21,5.42-1,2.19c-.47.94-.8,1.65-1,2A5.18,5.18,0,0,1,175,52a3,3,0,0,1-1.94.71,9,9,0,0,1-3.81-1.18c-2.6-1.34-3.87-2.83-3.87-4.55a10.41,10.41,0,0,1,1.13-3.61s6-13.19,18-39.48a6.36,6.36,0,0,1,2.27-2.67,5.72,5.72,0,0,1,8.49,2.75l18,39.4a10.27,10.27,0,0,1,1.14,3.61c0,1.72-1.27,3.29-3.88,4.63a8.88,8.88,0,0,1-3.8,1.17A3,3,0,0,1,204.92,52.12Zm-15-31.24-6.42,14.2L195,31.87Z"/><path class="cls-1" d="M223.87,52.41a8.08,8.08,0,0,1-2.25-.86,3.36,3.36,0,0,1-1.12-1.49,4.58,4.58,0,0,1-.43-1.65,10.68,10.68,0,0,1-.09-2V7.25a17.11,17.11,0,0,1,.17-2.43A5.79,5.79,0,0,1,220.93,3a3.48,3.48,0,0,1,2.33-1.49,17,17,0,0,1,4.41-.47h18.65a25.67,25.67,0,0,1,7.51,1.18,29.8,29.8,0,0,1,7.26,3.37,17.82,17.82,0,0,1,5.7,5.88A16.39,16.39,0,0,1,269,19.87c0,5.25-1.39,8.94-10.28,12.31L235.27,42.53v4a16.13,16.13,0,0,1-.09,2.35,5.53,5.53,0,0,1-.86,2A3.73,3.73,0,0,1,232,52.33a21.36,21.36,0,0,1-4.4.4A22.45,22.45,0,0,1,223.87,52.41Zm22.45-26.35c1.64-.62,3.37-1.25,5-2a4.18,4.18,0,0,0,2.5-4.24,5.35,5.35,0,0,0-2.5-4.7,9.62,9.62,0,0,0-5.18-1.49H235.27V30.06Z"/><path class="cls-2" d="M64.21,44.65a25.51,25.51,0,0,1-7.3-18.17A28.19,28.19,0,0,1,59,15.7a25.48,25.48,0,0,1,5.45-8.39,26.52,26.52,0,0,1,7.85-5.39A22.34,22.34,0,0,1,81.39,0,24,24,0,0,1,98.91,7.39c5,5,7.43,11.24,7.43,18.78A26.25,26.25,0,0,1,99.25,44.5,22.55,22.55,0,0,1,82,52.27,23.62,23.62,0,0,1,64.21,44.65Zm26.18-8.47c2.59-2.46,3.89-5.85,3.89-10.08A13.54,13.54,0,0,0,90.39,16a12,12,0,0,0-17.52.08A13.53,13.53,0,0,0,69,26.17a13.11,13.11,0,0,0,4,9.94,11.88,11.88,0,0,0,17.45.07Z"/></g></g></svg>