<svg xmlns="http://www.w3.org/2000/svg" width="157.5" height="89.599" viewBox="0 0 157.5 89.599"><defs><style>.a{fill:#ee3224 !important;}</style></defs><g transform="translate(-217 -344)"><path class="a" d="M11.932-141.707V-144.5q.77-.232,2.541-.658a17.04,17.04,0,0,0,3.734-1.278,6.662,6.662,0,0,0,.7-3.331l-.039-4.571.077-8.831-.039-2.092q.31-7.669.31-7.9l-.077-5.152.116-2.092-.194-4.416-.077-1.666a8.628,8.628,0,0,0-.271-1.24,15.127,15.127,0,0,0-5.152-.93,13.335,13.335,0,0,1-1.356-.116l-.077-3.409,11.074.465q2.052.077,2.556.077,2.285,0,7.318-.31,2.826-.194,3.562-.232.047.736.047,1.24,0,.658-.093,1.7-1.546.542-3.537,1.026a25.609,25.609,0,0,0-3.266.988,13.827,13.827,0,0,0-.231,2.905,25.639,25.639,0,0,0,.116,2.711q-.116,6.546-.116,10.071l.039,10.226-.194,5.19.155,7.747L29.44-146.9a2.653,2.653,0,0,0,.232.891,39.4,39.4,0,0,0,4.275.7q.347.039,2.349.31a15.19,15.19,0,0,1,.154,1.937q0,.426-.039,1.317a5.836,5.836,0,0,0-.773.039q-1.238.077-1.431.077a7.8,7.8,0,0,1-1.006-.116q-.541-.077-5.143-.542l-6.845-.077q-2.05,0-5.956.387Q12.705-141.746,11.932-141.707Zm29.826-.039.116-2.634q4.842-.62,6.159-1.975.852-.93,1.317-4.842l.5-13.79.581-14.022q.077-1.278.077-1.549,0-5.462-.639-6.314t-4.977-1.666q-1.085-.232-1.7-.387-.077-.968-.077-1.627v-1.2q1.431-.116,3.364-.116l11.33.387q.387.039,1.083.077l1.779.077a12.473,12.473,0,0,1,1.34,2.057q1.419,2.833,3.778,8.3l.445,1.037,6.017,13.143.635,1.348,1.241,2.635,1.3,2.767,1.267,2.688a21.673,21.673,0,0,0,1.046-2.053q1.549-3.564,3.021-6.546,2.556-5.268,6.934-16.114.7-1.743,2.3-5.249t1.762-3.7a2.2,2.2,0,0,1,1.393-.31q.387,0,1.2-.039,2.012-.116,4.836-.194,4.063-.039,6.52-.252t2.767-.213a6.705,6.705,0,0,1,.928.077q.039.542.039.852l-.077,1.162q0,.349-.039,1.046a21.335,21.335,0,0,0-5.926,1.627q-1.588.775-1.588,1.937v.581l.665,11.853q.117,1.627.626,16.152.117,3.254.509,8.25a8.259,8.259,0,0,1,.078.968,1.543,1.543,0,0,0,.407,1.2q.368.271,6.953,2.247.039.62.039.93,0,.813-.039,1.627-1.046,0-5.268-.445a75.564,75.564,0,0,0-7.9-.445q-5.617,0-10.923.465-.7.077-1.356.116l.077-2.673a21.316,21.316,0,0,1,4.222-1.046,3.533,3.533,0,0,0,2.363-1.046q.5-.736.5-4.106,0-1.278-.039-2.247-.194-4.067-.232-11.311l-.658-13.673q-.116-2.905-.271-4.028L81.925-159.8q-.349.775-1.046,2.247-.891,1.9-1.2,2.6-2.983,7.166-4.145,10.962-.31.968-.93,2.518l-2.975-.039-2.093-5.926q-.931-2.324-3.179-7.05-1.318-2.75-2.055-4.454-.349-.7-.5-1.046l-.465-.968a1.376,1.376,0,0,0-.116-.387l-5.776-12.434-3.527-7.553-.307,18.321-.269,11.892a6.355,6.355,0,0,0,1.1,4.2q1.1,1.259,4.745,2.15l1.859.465v2.828q-2.247-.039-4.822-.329a63.793,63.793,0,0,0-6.837-.291Q48.5-142.094,41.757-141.746Zm70.11,0,.077-2.634a25.616,25.616,0,0,1,2.6-.581,12.065,12.065,0,0,0,3.622-1.046,6.973,6.973,0,0,0,1.569-2.247l7.82-20.473,9.174-24.072h4.214l.348.7,6.733,15.959q2.283,5.074,4.1,9.858t3.134,7.805q.774,1.821,2.129,5.462a51.525,51.525,0,0,0,2.128,4.958,6.005,6.005,0,0,0,1.162,1.9,4.412,4.412,0,0,0,2.266.775,14.529,14.529,0,0,1,3.389.891,14.027,14.027,0,0,1,.194,1.9q0,.271-.039.852-2.866,0-6.314-.271t-6.2-.271q-3.06,0-4.416.077l-6.585.349-1.9.077q0-1.356.116-2.6l4.3-.93a8.091,8.091,0,0,0,2.247-.775,1.225,1.225,0,0,0,.387-.891,3.1,3.1,0,0,0-.194-1.046l-1.539-3.8-3.039-7.592-14.788-.039q-.823,1.859-3.411,9.1a10.419,10.419,0,0,0-.736,2.789,1.717,1.717,0,0,0,.542,1.433,7.017,7.017,0,0,0,3.409,1.046q.349.077,2.75.426.039,1.394.039,1.937a5.423,5.423,0,0,1-.077.891q-2.4,0-11.465-.658l-1.588.271a34.158,34.158,0,0,1-5.462.465Zm18.22-21.769q9.052.116,10.677.116l.967-.039q-1.162-3.447-3.022-8.037t-3.022-6.992Z" transform="translate(207.978 554.155)"/><g transform="translate(217 344)"><g transform="translate(0 0)"><rect class="a" width="157.212" height="4.68" transform="translate(0 0)"/><rect class="a" width="157.212" height="4.68" transform="translate(0 84.919)"/></g></g></g></svg>