<svg xmlns="http://www.w3.org/2000/svg" width="20" height="20" viewBox="0 0 20 20">
            <path id="_Video" data-name="􀊕 Video" d="M11.65,3.838a9.6,9.6,0,0,0,3.868-.787A10.241,10.241,0,0,0,18.708.885,10.185,10.185,0,0,0,20.868-2.3a9.616,9.616,0,0,0,.782-3.863,9.616,9.616,0,0,0-.782-3.863A10.2,10.2,0,0,0,18.7-13.215a10.187,10.187,0,0,0-3.194-2.166,9.652,9.652,0,0,0-3.868-.782,9.6,9.6,0,0,0-3.848.782A10.187,10.187,0,0,0,4.6-13.215a10.2,10.2,0,0,0-2.166,3.189A9.616,9.616,0,0,0,1.65-6.162,9.562,9.562,0,0,0,2.437-2.3,10.258,10.258,0,0,0,4.6.885,10.241,10.241,0,0,0,7.792,3.051,9.573,9.573,0,0,0,11.65,3.838ZM11.65,2a7.982,7.982,0,0,1-3.169-.633,8.179,8.179,0,0,1-2.6-1.749,8.109,8.109,0,0,1-1.744-2.6,8.065,8.065,0,0,1-.628-3.179A8.039,8.039,0,0,1,4.14-9.331a8.169,8.169,0,0,1,1.744-2.6,8.153,8.153,0,0,1,2.593-1.754,7.945,7.945,0,0,1,3.164-.633,8,8,0,0,1,3.184.633,8.214,8.214,0,0,1,2.6,1.754,8.2,8.2,0,0,1,1.754,2.6,7.982,7.982,0,0,1,.633,3.169,7.83,7.83,0,0,1-.628,3.179,8.294,8.294,0,0,1-1.749,2.6A8.119,8.119,0,0,1,14.84,1.364,8.034,8.034,0,0,1,11.65,2ZM15.4-5.617a.585.585,0,0,0,.309-.53.585.585,0,0,0-.309-.53L9.829-9.969a.737.737,0,0,0-.658-.057.482.482,0,0,0-.329.489v6.78a.493.493,0,0,0,.324.489.693.693,0,0,0,.664-.067Z" transform="translate(-1.65 16.162)" fill="#707070" />
        </svg>