<svg xmlns="http://www.w3.org/2000/svg" width="20" height="20" viewBox="0 0 20 20">
            <path id="_Link" data-name="􀒠 Link" d="M11.65,3.838a9.6,9.6,0,0,0,3.868-.787A10.241,10.241,0,0,0,18.708.885,10.185,10.185,0,0,0,20.868-2.3a9.616,9.616,0,0,0,.782-3.863,9.616,9.616,0,0,0-.782-3.863A10.2,10.2,0,0,0,18.7-13.215a10.187,10.187,0,0,0-3.194-2.166,9.652,9.652,0,0,0-3.868-.782,9.6,9.6,0,0,0-3.848.782A10.187,10.187,0,0,0,4.6-13.215a10.2,10.2,0,0,0-2.166,3.189A9.616,9.616,0,0,0,1.65-6.162,9.562,9.562,0,0,0,2.437-2.3,10.258,10.258,0,0,0,4.6.885,10.241,10.241,0,0,0,7.792,3.051,9.573,9.573,0,0,0,11.65,3.838ZM11.65,2a7.982,7.982,0,0,1-3.169-.633,8.179,8.179,0,0,1-2.6-1.749,8.109,8.109,0,0,1-1.744-2.6,8.065,8.065,0,0,1-.628-3.179A8.039,8.039,0,0,1,4.14-9.331a8.169,8.169,0,0,1,1.744-2.6,8.153,8.153,0,0,1,2.593-1.754,7.945,7.945,0,0,1,3.164-.633,8,8,0,0,1,3.184.633,8.214,8.214,0,0,1,2.6,1.754,8.2,8.2,0,0,1,1.754,2.6,7.982,7.982,0,0,1,.633,3.169,7.83,7.83,0,0,1-.628,3.179,8.294,8.294,0,0,1-1.749,2.6A8.119,8.119,0,0,1,14.84,1.364,8.034,8.034,0,0,1,11.65,2ZM6.938-1.6a2.509,2.509,0,0,0,2,.828,3.438,3.438,0,0,0,2.155-1.137l1.409-1.4a3.512,3.512,0,0,0,1.163-2.176,2.528,2.528,0,0,0-.844-2.022,3.019,3.019,0,0,0-.5-.412,1.4,1.4,0,0,0-.463-.206,2.2,2.2,0,0,0-.437.4,1.854,1.854,0,0,0-.324.514,1.761,1.761,0,0,1,.566.165,1.955,1.955,0,0,1,.422.278,1.5,1.5,0,0,1,.473,1.291,2.576,2.576,0,0,1-.823,1.445L10.375-2.674a2.477,2.477,0,0,1-1.42.782,1.508,1.508,0,0,1-1.276-.473,1.5,1.5,0,0,1-.494-1.271,2.372,2.372,0,0,1,.8-1.425l.947-.947A1.7,1.7,0,0,1,8.8-6.677a2.323,2.323,0,0,1,.113-.782L7.227-5.771A3.438,3.438,0,0,0,6.09-3.616,2.515,2.515,0,0,0,6.938-1.6Zm9.084-9.126a2.476,2.476,0,0,0-2-.833,3.5,3.5,0,0,0-2.16,1.142L10.457-9.032A3.512,3.512,0,0,0,9.294-6.857a2.517,2.517,0,0,0,.854,2.022,2.8,2.8,0,0,0,.5.417,1.4,1.4,0,0,0,.468.211,2.769,2.769,0,0,0,.427-.412,2.173,2.173,0,0,0,.334-.5,1.819,1.819,0,0,1-.571-.165,1.542,1.542,0,0,1-.417-.288,1.465,1.465,0,0,1-.484-1.281A2.576,2.576,0,0,1,11.229-8.3L12.587-9.66a2.5,2.5,0,0,1,1.425-.792,1.491,1.491,0,0,1,1.271.484,1.474,1.474,0,0,1,.5,1.265,2.44,2.44,0,0,1-.808,1.43l-.936.936a1.861,1.861,0,0,1,.123.674,2.257,2.257,0,0,1-.113.777l1.687-1.667a3.477,3.477,0,0,0,1.137-2.166A2.515,2.515,0,0,0,16.023-10.73Z" transform="translate(-1.65 16.162)" fill="#707070" />
        </svg>