<svg xmlns="http://www.w3.org/2000/svg" width="20" height="20" viewBox="0 0 20 20">
<path id="_Audio" data-name="􀞈 Audio" d="M11.65,3.838a9.6,9.6,0,0,0,3.868-.787A10.241,10.241,0,0,0,18.708.885,10.185,10.185,0,0,0,20.868-2.3a9.616,9.616,0,0,0,.782-3.863,9.616,9.616,0,0,0-.782-3.863A10.2,10.2,0,0,0,18.7-13.215a10.187,10.187,0,0,0-3.194-2.166,9.652,9.652,0,0,0-3.868-.782,9.6,9.6,0,0,0-3.848.782A10.187,10.187,0,0,0,4.6-13.215a10.2,10.2,0,0,0-2.166,3.189A9.616,9.616,0,0,0,1.65-6.162,9.562,9.562,0,0,0,2.437-2.3,10.258,10.258,0,0,0,4.6.885,10.241,10.241,0,0,0,7.792,3.051,9.573,9.573,0,0,0,11.65,3.838ZM11.65,2a7.982,7.982,0,0,1-3.169-.633,8.179,8.179,0,0,1-2.6-1.749,8.109,8.109,0,0,1-1.744-2.6,8.065,8.065,0,0,1-.628-3.179A8.039,8.039,0,0,1,4.14-9.331a8.169,8.169,0,0,1,1.744-2.6,8.153,8.153,0,0,1,2.593-1.754,7.945,7.945,0,0,1,3.164-.633,8,8,0,0,1,3.184.633,8.214,8.214,0,0,1,2.6,1.754,8.2,8.2,0,0,1,1.754,2.6,7.982,7.982,0,0,1,.633,3.169,7.83,7.83,0,0,1-.628,3.179,8.294,8.294,0,0,1-1.749,2.6A8.119,8.119,0,0,1,14.84,1.364,8.034,8.034,0,0,1,11.65,2ZM6.733-4.7a.6.6,0,0,0,.432-.17.558.558,0,0,0,.175-.417V-7.047a.563.563,0,0,0-.175-.412.587.587,0,0,0-.432-.175.563.563,0,0,0-.412.175.563.563,0,0,0-.175.412v1.759a.558.558,0,0,0,.175.417A.572.572,0,0,0,6.733-4.7ZM8.708-2.376a.575.575,0,0,0,.422-.175A.575.575,0,0,0,9.3-2.973v-6.4a.563.563,0,0,0-.175-.412.575.575,0,0,0-.422-.175.57.57,0,0,0-.427.175.572.572,0,0,0-.17.412v6.4a.584.584,0,0,0,.17.422A.57.57,0,0,0,8.708-2.376ZM10.673.093a.558.558,0,0,0,.417-.175.584.584,0,0,0,.17-.422V-11.81a.575.575,0,0,0-.17-.432.576.576,0,0,0-.417-.165.589.589,0,0,0-.427.165.575.575,0,0,0-.17.432V-.5a.589.589,0,0,0,.165.427A.575.575,0,0,0,10.673.093Zm1.944-3.22a.579.579,0,0,0,.427-.17.566.566,0,0,0,.17-.417v-4.9a.562.562,0,0,0-.17-.422.589.589,0,0,0-.427-.165.576.576,0,0,0-.417.165.562.562,0,0,0-.17.422v4.9a.566.566,0,0,0,.17.417A.566.566,0,0,0,12.617-3.127Zm1.965,1.893a.579.579,0,0,0,.427-.17.579.579,0,0,0,.17-.427V-10.5a.566.566,0,0,0-.17-.417.579.579,0,0,0-.427-.17.584.584,0,0,0-.422.17.558.558,0,0,0-.175.417v8.673a.57.57,0,0,0,.175.427A.584.584,0,0,0,14.582-1.234Zm1.975-2.984a.576.576,0,0,0,.417-.165.575.575,0,0,0,.17-.432V-7.52a.579.579,0,0,0-.17-.427.566.566,0,0,0-.417-.17.583.583,0,0,0-.437.175.584.584,0,0,0-.17.422v2.706a.579.579,0,0,0,.17.427A.592.592,0,0,0,16.558-4.218Z" transform="translate(-1.65 16.162)" fill="#707070" />
</svg>